<?xml version="1.0" encoding="UTF-8" standalone="no"?> <svg version="1.1" viewBox="-3 -2 22 22" xmlns="http://www.w3.org/2000/svg" xmlns:xlink="http://www.w3.org/1999/xlink"><path d="M12,10h-1.60834c-0.573669,-0.518494 -1.39166,-1.3031 -1.39166,-3c0,-0.482422 0.150391,-0.818359 0.358887,-1.2832c0.285645,-0.637695 0.641113,-1.43115 0.641113,-2.7168c0,-1.6543 -1.3457,-3 -3,-3c-1.6543,0 -3,1.3457 -3,3c0,1.28564 0.355469,2.0791 0.641113,2.7168c0.208496,0.464844 0.358887,0.800781 0.358887,1.2832c0,1.6969 -0.817993,2.48151 -1.39166,3h-1.60834c-1.10303,0 -2,0.896973 -2,2v2c0,0.552246 0.447754,1 1,1v1h12v-1c0.552246,0 1,-0.447754 1,-1v-2c0,-1.10303 -0.896973,-2 -2,-2Z" transform="translate(1, 0)"></path></svg>